<svg xmlns="http://www.w3.org/2000/svg" xmlns:xlink="http://www.w3.org/1999/xlink" contentStyleType="text/css" data-diagram-type="CLASS" height="630px" preserveAspectRatio="none" style="width:1433px;height:630px;background:#FFFFFF;" version="1.1" viewBox="0 0 1433 630" width="1433px" zoomAndPan="magnify"><defs/><g><!--class User--><g class="entity" data-entity="User" data-source-line="1" data-uid="ent0002" id="entity_User"><rect fill="#F1F1F1" height="96.8906" rx="2.5" ry="2.5" style="stroke:#181818;stroke-width:0.5;" width="168.9258" x="393.79" y="220.93"/><ellipse cx="458.0478" cy="236.93" fill="#ADD1B2" rx="11" ry="11" style="stroke:#181818;stroke-width:1;"/><path d="M461.0166,242.5706 Q460.4384,242.8675 459.7978,243.0081 Q459.1572,243.1644 458.4541,243.1644 Q455.9541,243.1644 454.6259,241.5238 Q453.3134,239.8675 453.3134,236.7425 Q453.3134,233.6175 454.6259,231.9613 Q455.9541,230.305 458.4541,230.305 Q459.1572,230.305 459.7978,230.4613 Q460.4541,230.6175 461.0166,230.9144 L461.0166,233.6331 Q460.3916,233.055 459.7978,232.7894 Q459.2041,232.5081 458.5791,232.5081 Q457.2353,232.5081 456.5478,233.5863 Q455.8603,234.6488 455.8603,236.7425 Q455.8603,238.8363 456.5478,239.9144 Q457.2353,240.9769 458.5791,240.9769 Q459.2041,240.9769 459.7978,240.7113 Q460.3916,240.43 461.0166,239.8519 L461.0166,242.5706 Z " fill="#000000"/><text fill="#000000" font-family="sans-serif" font-size="14" lengthAdjust="spacing" textLength="31.9102" x="478.5478" y="241.7767">User</text><line style="stroke:#181818;stroke-width:0.5;" x1="394.79" x2="561.7158" y1="252.93" y2="252.93"/><ellipse cx="404.79" cy="266.5784" fill="none" rx="3" ry="3" style="stroke:#038048;stroke-width:1;"/><text fill="#000000" font-family="sans-serif" font-size="14" lengthAdjust="spacing" textLength="57.3467" x="413.79" y="269.9251">id: UUID</text><ellipse cx="404.79" cy="282.8753" fill="none" rx="3" ry="3" style="stroke:#038048;stroke-width:1;"/><text fill="#000000" font-family="sans-serif" font-size="14" lengthAdjust="spacing" textLength="142.9258" x="413.79" y="286.222">email: EmailAddress</text><ellipse cx="404.79" cy="299.1722" fill="none" rx="3" ry="3" style="stroke:#038048;stroke-width:1;"/><text fill="#000000" font-family="sans-serif" font-size="14" lengthAdjust="spacing" textLength="141.9619" x="413.79" y="302.5189">displayName: String</text><line style="stroke:#181818;stroke-width:0.5;" x1="394.79" x2="561.7158" y1="309.8206" y2="309.8206"/></g><!--class Credentials--><g class="entity" data-entity="Credentials" data-source-line="7" data-uid="ent0003" id="entity_Credentials"><rect fill="#F1F1F1" height="80.5938" rx="2.5" ry="2.5" style="stroke:#181818;stroke-width:0.5;" width="236.3418" x="360.09" y="39.59"/><ellipse cx="434.1813" cy="55.59" fill="#ADD1B2" rx="11" ry="11" style="stroke:#181818;stroke-width:1;"/><path d="M437.1501,61.2306 Q436.5719,61.5275 435.9313,61.6681 Q435.2907,61.8244 434.5876,61.8244 Q432.0876,61.8244 430.7594,60.1838 Q429.4469,58.5275 429.4469,55.4025 Q429.4469,52.2775 430.7594,50.6213 Q432.0876,48.965 434.5876,48.965 Q435.2907,48.965 435.9313,49.1213 Q436.5876,49.2775 437.1501,49.5744 L437.1501,52.2931 Q436.5251,51.715 435.9313,51.4494 Q435.3376,51.1681 434.7126,51.1681 Q433.3688,51.1681 432.6813,52.2463 Q431.9938,53.3088 431.9938,55.4025 Q431.9938,57.4963 432.6813,58.5744 Q433.3688,59.6369 434.7126,59.6369 Q435.3376,59.6369 435.9313,59.3713 Q436.5251,59.09 437.1501,58.5119 L437.1501,61.2306 Z " fill="#000000"/><text fill="#000000" font-family="sans-serif" font-size="14" lengthAdjust="spacing" textLength="79.6592" x="454.6813" y="60.4367">Credentials</text><line style="stroke:#181818;stroke-width:0.5;" x1="361.09" x2="595.4318" y1="71.59" y2="71.59"/><ellipse cx="371.09" cy="85.2384" fill="none" rx="3" ry="3" style="stroke:#038048;stroke-width:1;"/><text fill="#000000" font-family="sans-serif" font-size="14" lengthAdjust="spacing" textLength="85.0527" x="380.09" y="88.5851">login: String</text><rect fill="none" height="6" style="stroke:#C82930;stroke-width:1;" width="6" x="368.09" y="98.5353"/><text fill="#000000" font-family="sans-serif" font-size="14" lengthAdjust="spacing" textLength="210.3418" x="380.09" y="104.882">&#171;encrypted&#187; password: String</text><line style="stroke:#181818;stroke-width:0.5;" x1="361.09" x2="595.4318" y1="112.1838" y2="112.1838"/></g><!--class Permission--><g class="entity" data-entity="Permission" data-source-line="14" data-uid="ent0005" id="entity_Permission"><rect fill="#F1F1F1" height="64.2969" rx="2.5" ry="2.5" style="stroke:#181818;stroke-width:0.5;" width="180.3691" x="246.07" y="418.56"/><ellipse cx="293.8771" cy="434.56" fill="#ADD1B2" rx="11" ry="11" style="stroke:#181818;stroke-width:1;"/><path d="M296.8459,440.2006 Q296.2678,440.4975 295.6271,440.6381 Q294.9865,440.7944 294.2834,440.7944 Q291.7834,440.7944 290.4553,439.1538 Q289.1428,437.4975 289.1428,434.3725 Q289.1428,431.2475 290.4553,429.5913 Q291.7834,427.935 294.2834,427.935 Q294.9865,427.935 295.6271,428.0913 Q296.2834,428.2475 296.8459,428.5444 L296.8459,431.2631 Q296.2209,430.685 295.6271,430.4194 Q295.0334,430.1381 294.4084,430.1381 Q293.0646,430.1381 292.3771,431.2163 Q291.6896,432.2788 291.6896,434.3725 Q291.6896,436.4663 292.3771,437.5444 Q293.0646,438.6069 294.4084,438.6069 Q295.0334,438.6069 295.6271,438.3413 Q296.2209,438.06 296.8459,437.4819 L296.8459,440.2006 Z " fill="#000000"/><text fill="#000000" font-family="sans-serif" font-size="14" lengthAdjust="spacing" textLength="76.2549" x="314.3771" y="439.4067">Permission</text><line style="stroke:#181818;stroke-width:0.5;" x1="247.07" x2="425.4391" y1="450.56" y2="450.56"/><ellipse cx="257.07" cy="464.2084" fill="none" rx="3" ry="3" style="stroke:#038048;stroke-width:1;"/><text fill="#000000" font-family="sans-serif" font-size="14" lengthAdjust="spacing" textLength="154.3691" x="266.07" y="467.5551">key: PERMISSION_KEY</text><line style="stroke:#181818;stroke-width:0.5;" x1="247.07" x2="425.4391" y1="474.8569" y2="474.8569"/></g><!--class PERMISSION_KEY--><g class="entity" data-entity="PERMISSION_KEY" data-source-line="17" data-uid="ent0006" id="entity_PERMISSION_KEY"><rect fill="#F1F1F1" height="129.4844" rx="2.5" ry="2.5" style="stroke:#181818;stroke-width:0.5;" width="204.5137" x="7" y="385.97"/><ellipse cx="45.5428" cy="401.97" fill="#EB937F" rx="11" ry="11" style="stroke:#181818;stroke-width:1;"/><path d="M49.6522,407.97 L41.9334,407.97 L41.9334,395.5794 L49.6522,395.5794 L49.6522,397.7356 L44.3866,397.7356 L44.3866,400.4075 L49.1522,400.4075 L49.1522,402.5638 L44.3866,402.5638 L44.3866,405.8138 L49.6522,405.8138 L49.6522,407.97 Z " fill="#000000"/><text fill="#000000" font-family="sans-serif" font-size="14" lengthAdjust="spacing" textLength="120.1963" x="64.7746" y="406.8167">PERMISSION_KEY</text><line style="stroke:#181818;stroke-width:0.5;" x1="8" x2="210.5137" y1="417.97" y2="417.97"/><text fill="#000000" font-family="sans-serif" font-size="14" lengthAdjust="spacing" textLength="118.8018" x="13" y="434.9651">PAYMENTS_VIEW</text><text fill="#000000" font-family="sans-serif" font-size="14" lengthAdjust="spacing" textLength="143.8076" x="13" y="451.262">PAYMENTS_MANAGE</text><text fill="#000000" font-family="sans-serif" font-size="14" lengthAdjust="spacing" textLength="105.3076" x="13" y="467.5589">SIGNUPS_VIEW</text><text fill="#000000" font-family="sans-serif" font-size="14" lengthAdjust="spacing" textLength="130.3135" x="13" y="483.8557">SIGNUPS_MANAGE</text><text fill="#000000" font-family="sans-serif" font-size="14" lengthAdjust="spacing" textLength="192.5137" x="13" y="500.1526">ACCESSCONTROL_MANAGE</text><line style="stroke:#181818;stroke-width:0.5;" x1="8" x2="210.5137" y1="507.4544" y2="507.4544"/></g><!--class Event--><g class="entity" data-entity="Event" data-source-line="28" data-uid="ent0009" id="entity_Event"><rect fill="#F1F1F1" height="145.7813" rx="2.5" ry="2.5" style="stroke:#181818;stroke-width:0.5;" width="175.7959" x="657.36" y="7"/><ellipse cx="720.9547" cy="23" fill="#ADD1B2" rx="11" ry="11" style="stroke:#181818;stroke-width:1;"/><path d="M723.9235,28.6406 Q723.3454,28.9375 722.7047,29.0781 Q722.0641,29.2344 721.361,29.2344 Q718.861,29.2344 717.5329,27.5938 Q716.2204,25.9375 716.2204,22.8125 Q716.2204,19.6875 717.5329,18.0313 Q718.861,16.375 721.361,16.375 Q722.0641,16.375 722.7047,16.5313 Q723.361,16.6875 723.9235,16.9844 L723.9235,19.7031 Q723.2985,19.125 722.7047,18.8594 Q722.111,18.5781 721.486,18.5781 Q720.1422,18.5781 719.4547,19.6563 Q718.7672,20.7188 718.7672,22.8125 Q718.7672,24.9063 719.4547,25.9844 Q720.1422,27.0469 721.486,27.0469 Q722.111,27.0469 722.7047,26.7813 Q723.2985,26.5 723.9235,25.9219 L723.9235,28.6406 Z " fill="#000000"/><text fill="#000000" font-family="sans-serif" font-size="14" lengthAdjust="spacing" textLength="40.1064" x="741.4547" y="27.8467">Event</text><line style="stroke:#181818;stroke-width:0.5;" x1="658.36" x2="832.1559" y1="39" y2="39"/><ellipse cx="668.36" cy="52.6484" fill="none" rx="3" ry="3" style="stroke:#038048;stroke-width:1;"/><text fill="#000000" font-family="sans-serif" font-size="14" lengthAdjust="spacing" textLength="57.3467" x="677.36" y="55.9951">id: UUID</text><ellipse cx="668.36" cy="68.9453" fill="none" rx="3" ry="3" style="stroke:#038048;stroke-width:1;"/><text fill="#000000" font-family="sans-serif" font-size="14" lengthAdjust="spacing" textLength="90.6514" x="677.36" y="72.292">name: String</text><ellipse cx="668.36" cy="85.2422" fill="none" rx="3" ry="3" style="stroke:#038048;stroke-width:1;"/><text fill="#000000" font-family="sans-serif" font-size="14" lengthAdjust="spacing" textLength="124.9951" x="677.36" y="88.5889">startAt: DateTime</text><ellipse cx="668.36" cy="101.5391" fill="none" rx="3" ry="3" style="stroke:#038048;stroke-width:1;"/><text fill="#000000" font-family="sans-serif" font-size="14" lengthAdjust="spacing" textLength="118.7607" x="677.36" y="104.8857">endAt: DateTime</text><ellipse cx="668.36" cy="117.8359" fill="none" rx="3" ry="3" style="stroke:#038048;stroke-width:1;"/><text fill="#000000" font-family="sans-serif" font-size="14" lengthAdjust="spacing" textLength="118.6309" x="677.36" y="121.1826">capacity: Integer</text><ellipse cx="668.36" cy="134.1328" fill="none" rx="3" ry="3" style="stroke:#038048;stroke-width:1;"/><text fill="#000000" font-family="sans-serif" font-size="14" lengthAdjust="spacing" textLength="149.7959" x="677.36" y="137.4795">eventExec: UserUUID</text><line style="stroke:#181818;stroke-width:0.5;" x1="658.36" x2="832.1559" y1="144.7813" y2="144.7813"/></g><!--class Registration--><g class="entity" data-entity="Registration" data-source-line="37" data-uid="ent0010" id="entity_Registration"><rect fill="#F1F1F1" height="96.8906" rx="2.5" ry="2.5" style="stroke:#181818;stroke-width:0.5;" width="207.8496" x="668.33" y="220.93"/><ellipse cx="725.4784" cy="236.93" fill="#ADD1B2" rx="11" ry="11" style="stroke:#181818;stroke-width:1;"/><path d="M728.4472,242.5706 Q727.8691,242.8675 727.2284,243.0081 Q726.5878,243.1644 725.8847,243.1644 Q723.3847,243.1644 722.0566,241.5238 Q720.7441,239.8675 720.7441,236.7425 Q720.7441,233.6175 722.0566,231.9613 Q723.3847,230.305 725.8847,230.305 Q726.5878,230.305 727.2284,230.4613 Q727.8847,230.6175 728.4472,230.9144 L728.4472,233.6331 Q727.8222,233.055 727.2284,232.7894 Q726.6347,232.5081 726.0097,232.5081 Q724.6659,232.5081 723.9784,233.5863 Q723.2909,234.6488 723.2909,236.7425 Q723.2909,238.8363 723.9784,239.9144 Q724.6659,240.9769 726.0097,240.9769 Q726.6347,240.9769 727.2284,240.7113 Q727.8222,240.43 728.4472,239.8519 L728.4472,242.5706 Z " fill="#000000"/><text fill="#000000" font-family="sans-serif" font-size="14" lengthAdjust="spacing" textLength="85.0527" x="745.9784" y="241.7767">Registration</text><line style="stroke:#181818;stroke-width:0.5;" x1="669.33" x2="875.1796" y1="252.93" y2="252.93"/><ellipse cx="679.33" cy="266.5784" fill="none" rx="3" ry="3" style="stroke:#038048;stroke-width:1;"/><text fill="#000000" font-family="sans-serif" font-size="14" lengthAdjust="spacing" textLength="57.3467" x="688.33" y="269.9251">id: UUID</text><ellipse cx="679.33" cy="282.8753" fill="none" rx="3" ry="3" style="stroke:#038048;stroke-width:1;"/><text fill="#000000" font-family="sans-serif" font-size="14" lengthAdjust="spacing" textLength="163.4473" x="688.33" y="286.222">submittedAt: DateTime</text><ellipse cx="679.33" cy="299.1722" fill="none" rx="3" ry="3" style="stroke:#038048;stroke-width:1;"/><text fill="#000000" font-family="sans-serif" font-size="14" lengthAdjust="spacing" textLength="181.8496" x="688.33" y="302.5189">status: RegistrationStatus</text><line style="stroke:#181818;stroke-width:0.5;" x1="669.33" x2="875.1796" y1="309.8206" y2="309.8206"/></g><!--class RegistrationStatus--><g class="entity" data-entity="RegistrationStatus" data-source-line="42" data-uid="ent0011" id="entity_RegistrationStatus"><rect fill="#F1F1F1" height="96.8906" rx="2.5" ry="2.5" style="stroke:#181818;stroke-width:0.5;" width="161.6641" x="911.42" y="220.93"/><ellipse cx="926.42" cy="236.93" fill="#EB937F" rx="11" ry="11" style="stroke:#181818;stroke-width:1;"/><path d="M930.5294,242.93 L922.8106,242.93 L922.8106,230.5394 L930.5294,230.5394 L930.5294,232.6956 L925.2638,232.6956 L925.2638,235.3675 L930.0294,235.3675 L930.0294,237.5238 L925.2638,237.5238 L925.2638,240.7738 L930.5294,240.7738 L930.5294,242.93 Z " fill="#000000"/><text fill="#000000" font-family="sans-serif" font-size="14" lengthAdjust="spacing" textLength="129.6641" x="940.42" y="241.7767">RegistrationStatus</text><line style="stroke:#181818;stroke-width:0.5;" x1="912.42" x2="1072.0841" y1="252.93" y2="252.93"/><text fill="#000000" font-family="sans-serif" font-size="14" lengthAdjust="spacing" textLength="63.9912" x="917.42" y="269.9251">PENDING</text><text fill="#000000" font-family="sans-serif" font-size="14" lengthAdjust="spacing" textLength="76.4121" x="917.42" y="286.222">APPROVED</text><text fill="#000000" font-family="sans-serif" font-size="14" lengthAdjust="spacing" textLength="83.6719" x="917.42" y="302.5189">CANCELLED</text><line style="stroke:#181818;stroke-width:0.5;" x1="912.42" x2="1072.0841" y1="309.8206" y2="309.8206"/></g><!--class PaymentGateway--><g class="entity" data-entity="PaymentGateway" data-source-line="52" data-uid="ent0015" id="entity_PaymentGateway"><rect fill="#F1F1F1" height="113.1875" rx="2.5" ry="2.5" style="stroke:#181818;stroke-width:0.5;" width="213.9199" x="991.3" y="394.11"/><ellipse cx="1032.4699" cy="410.11" fill="#ADD1B2" rx="11" ry="11" style="stroke:#181818;stroke-width:1;"/><path d="M1035.4386,415.7506 Q1034.8605,416.0475 1034.2199,416.1881 Q1033.5792,416.3444 1032.8761,416.3444 Q1030.3761,416.3444 1029.048,414.7038 Q1027.7355,413.0475 1027.7355,409.9225 Q1027.7355,406.7975 1029.048,405.1413 Q1030.3761,403.485 1032.8761,403.485 Q1033.5792,403.485 1034.2199,403.6413 Q1034.8761,403.7975 1035.4386,404.0944 L1035.4386,406.8131 Q1034.8136,406.235 1034.2199,405.9694 Q1033.6261,405.6881 1033.0011,405.6881 Q1031.6574,405.6881 1030.9699,406.7663 Q1030.2824,407.8288 1030.2824,409.9225 Q1030.2824,412.0163 1030.9699,413.0944 Q1031.6574,414.1569 1033.0011,414.1569 Q1033.6261,414.1569 1034.2199,413.8913 Q1034.8136,413.61 1035.4386,413.0319 L1035.4386,415.7506 Z " fill="#000000"/><text fill="#000000" font-family="sans-serif" font-size="14" lengthAdjust="spacing" textLength="123.7646" x="1052.2854" y="414.9567">PaymentGateway</text><line style="stroke:#181818;stroke-width:0.5;" x1="992.3" x2="1204.2199" y1="426.11" y2="426.11"/><ellipse cx="1002.3" cy="439.7584" fill="none" rx="3" ry="3" style="stroke:#038048;stroke-width:1;"/><text fill="#000000" font-family="sans-serif" font-size="14" lengthAdjust="spacing" textLength="57.3467" x="1011.3" y="443.1051">id: UUID</text><ellipse cx="1002.3" cy="456.0553" fill="none" rx="3" ry="3" style="stroke:#038048;stroke-width:1;"/><text fill="#000000" font-family="sans-serif" font-size="14" lengthAdjust="spacing" textLength="153.5898" x="1011.3" y="459.402">amountCents: Integer</text><ellipse cx="1002.3" cy="472.3522" fill="none" rx="3" ry="3" style="stroke:#038048;stroke-width:1;"/><text fill="#000000" font-family="sans-serif" font-size="14" lengthAdjust="spacing" textLength="187.9199" x="1011.3" y="475.6989">provider: PaymentProvider</text><ellipse cx="1002.3" cy="488.6491" fill="none" rx="3" ry="3" style="stroke:#038048;stroke-width:1;"/><text fill="#000000" font-family="sans-serif" font-size="14" lengthAdjust="spacing" textLength="136.6982" x="1011.3" y="491.9957">type: PaymentType</text><line style="stroke:#181818;stroke-width:0.5;" x1="992.3" x2="1204.2199" y1="499.2975" y2="499.2975"/></g><!--class PaymentProvider--><g class="entity" data-entity="PaymentProvider" data-source-line="58" data-uid="ent0016" id="entity_PaymentProvider"><rect fill="#F1F1F1" height="80.5938" rx="2.5" ry="2.5" style="stroke:#181818;stroke-width:0.5;" width="162.2061" x="1240.15" y="410.41"/><ellipse cx="1259.6913" cy="426.41" fill="#EB937F" rx="11" ry="11" style="stroke:#181818;stroke-width:1;"/><path d="M1263.8007,432.41 L1256.0819,432.41 L1256.0819,420.0194 L1263.8007,420.0194 L1263.8007,422.1756 L1258.5351,422.1756 L1258.5351,424.8475 L1263.3007,424.8475 L1263.3007,427.0038 L1258.5351,427.0038 L1258.5351,430.2538 L1263.8007,430.2538 L1263.8007,432.41 Z " fill="#000000"/><text fill="#000000" font-family="sans-serif" font-size="14" lengthAdjust="spacing" textLength="120.1143" x="1274.7005" y="431.2567">PaymentProvider</text><line style="stroke:#181818;stroke-width:0.5;" x1="1241.15" x2="1401.3561" y1="442.41" y2="442.41"/><text fill="#000000" font-family="sans-serif" font-size="14" lengthAdjust="spacing" textLength="150.2061" x="1246.15" y="459.4051">EXTERNAL_GATEWAY</text><text fill="#000000" font-family="sans-serif" font-size="14" lengthAdjust="spacing" textLength="132.3779" x="1246.15" y="475.702">INTERNAL_SYSTEM</text><line style="stroke:#181818;stroke-width:0.5;" x1="1241.15" x2="1401.3561" y1="483.0038" y2="483.0038"/></g><!--class PaymentType--><g class="entity" data-entity="PaymentType" data-source-line="62" data-uid="ent0017" id="entity_PaymentType"><rect fill="#F1F1F1" height="96.8906" rx="2.5" ry="2.5" style="stroke:#181818;stroke-width:0.5;" width="128.2568" x="828.13" y="402.26"/><ellipse cx="843.13" cy="418.26" fill="#EB937F" rx="11" ry="11" style="stroke:#181818;stroke-width:1;"/><path d="M847.2394,424.26 L839.5206,424.26 L839.5206,411.8694 L847.2394,411.8694 L847.2394,414.0256 L841.9738,414.0256 L841.9738,416.6975 L846.7394,416.6975 L846.7394,418.8538 L841.9738,418.8538 L841.9738,422.1038 L847.2394,422.1038 L847.2394,424.26 Z " fill="#000000"/><text fill="#000000" font-family="sans-serif" font-size="14" lengthAdjust="spacing" textLength="96.2568" x="857.13" y="423.1067">PaymentType</text><line style="stroke:#181818;stroke-width:0.5;" x1="829.13" x2="955.3868" y1="434.26" y2="434.26"/><text fill="#000000" font-family="sans-serif" font-size="14" lengthAdjust="spacing" textLength="98.6699" x="834.13" y="451.2551">CREDIT_CARD</text><text fill="#000000" font-family="sans-serif" font-size="14" lengthAdjust="spacing" textLength="88.7715" x="834.13" y="467.552">DEBIT_CARD</text><text fill="#000000" font-family="sans-serif" font-size="14" lengthAdjust="spacing" textLength="89.6875" x="834.13" y="483.8489">E_TRANSFER</text><line style="stroke:#181818;stroke-width:0.5;" x1="829.13" x2="955.3868" y1="491.1506" y2="491.1506"/></g><!--class Ticket--><g class="entity" data-entity="Ticket" data-source-line="73" data-uid="ent0021" id="entity_Ticket"><rect fill="#F1F1F1" height="96.8906" rx="2.5" ry="2.5" style="stroke:#181818;stroke-width:0.5;" width="165.1455" x="1107.68" y="220.93"/><ellipse cx="1164.8284" cy="236.93" fill="#ADD1B2" rx="11" ry="11" style="stroke:#181818;stroke-width:1;"/><path d="M1167.7972,242.5706 Q1167.2191,242.8675 1166.5784,243.0081 Q1165.9378,243.1644 1165.2347,243.1644 Q1162.7347,243.1644 1161.4066,241.5238 Q1160.0941,239.8675 1160.0941,236.7425 Q1160.0941,233.6175 1161.4066,231.9613 Q1162.7347,230.305 1165.2347,230.305 Q1165.9378,230.305 1166.5784,230.4613 Q1167.2347,230.6175 1167.7972,230.9144 L1167.7972,233.6331 Q1167.1722,233.055 1166.5784,232.7894 Q1165.9847,232.5081 1165.3597,232.5081 Q1164.0159,232.5081 1163.3284,233.5863 Q1162.6409,234.6488 1162.6409,236.7425 Q1162.6409,238.8363 1163.3284,239.9144 Q1164.0159,240.9769 1165.3597,240.9769 Q1165.9847,240.9769 1166.5784,240.7113 Q1167.1722,240.43 1167.7972,239.8519 L1167.7972,242.5706 Z " fill="#000000"/><text fill="#000000" font-family="sans-serif" font-size="14" lengthAdjust="spacing" textLength="42.3486" x="1185.3284" y="241.7767">Ticket</text><line style="stroke:#181818;stroke-width:0.5;" x1="1108.68" x2="1271.8255" y1="252.93" y2="252.93"/><ellipse cx="1118.68" cy="266.5784" fill="none" rx="3" ry="3" style="stroke:#038048;stroke-width:1;"/><text fill="#000000" font-family="sans-serif" font-size="14" lengthAdjust="spacing" textLength="57.3467" x="1127.68" y="269.9251">id: UUID</text><ellipse cx="1118.68" cy="282.8753" fill="none" rx="3" ry="3" style="stroke:#038048;stroke-width:1;"/><text fill="#000000" font-family="sans-serif" font-size="14" lengthAdjust="spacing" textLength="84.7109" x="1127.68" y="286.222">code: String</text><ellipse cx="1118.68" cy="299.1722" fill="none" rx="3" ry="3" style="stroke:#038048;stroke-width:1;"/><text fill="#000000" font-family="sans-serif" font-size="14" lengthAdjust="spacing" textLength="139.1455" x="1127.68" y="302.5189">status: TicketStatus</text><line style="stroke:#181818;stroke-width:0.5;" x1="1108.68" x2="1271.8255" y1="309.8206" y2="309.8206"/></g><!--class TicketStatus--><g class="entity" data-entity="TicketStatus" data-source-line="78" data-uid="ent0022" id="entity_TicketStatus"><rect fill="#F1F1F1" height="113.1875" rx="2.5" ry="2.5" style="stroke:#181818;stroke-width:0.5;" width="118.96" x="1307.78" y="212.78"/><ellipse cx="1322.78" cy="228.78" fill="#EB937F" rx="11" ry="11" style="stroke:#181818;stroke-width:1;"/><path d="M1326.8894,234.78 L1319.1706,234.78 L1319.1706,222.3894 L1326.8894,222.3894 L1326.8894,224.5456 L1321.6238,224.5456 L1321.6238,227.2175 L1326.3894,227.2175 L1326.3894,229.3738 L1321.6238,229.3738 L1321.6238,232.6238 L1326.8894,232.6238 L1326.8894,234.78 Z " fill="#000000"/><text fill="#000000" font-family="sans-serif" font-size="14" lengthAdjust="spacing" textLength="86.96" x="1336.78" y="233.6267">TicketStatus</text><line style="stroke:#181818;stroke-width:0.5;" x1="1308.78" x2="1425.74" y1="244.78" y2="244.78"/><text fill="#000000" font-family="sans-serif" font-size="14" lengthAdjust="spacing" textLength="76.4873" x="1313.78" y="261.7751">AVAILABLE</text><text fill="#000000" font-family="sans-serif" font-size="14" lengthAdjust="spacing" textLength="38.4863" x="1313.78" y="278.072">SOLD</text><text fill="#000000" font-family="sans-serif" font-size="14" lengthAdjust="spacing" textLength="83.6719" x="1313.78" y="294.3689">CANCELLED</text><text fill="#000000" font-family="sans-serif" font-size="14" lengthAdjust="spacing" textLength="89.332" x="1313.78" y="310.6657">CHECKED_IN</text><line style="stroke:#181818;stroke-width:0.5;" x1="1308.78" x2="1425.74" y1="317.9675" y2="317.9675"/></g><!--class Signup--><g class="entity" data-entity="Signup" data-source-line="88" data-uid="ent0025" id="entity_Signup"><rect fill="#F1F1F1" height="96.8906" rx="2.5" ry="2.5" style="stroke:#181818;stroke-width:0.5;" width="172.0225" x="461.25" y="402.26"/><ellipse cx="518.8633" cy="418.26" fill="#A9DCDF" rx="11" ry="11" style="stroke:#181818;stroke-width:1;"/><path d="M518.9727,413.6038 L517.8164,418.6819 L520.1445,418.6819 L518.9727,413.6038 Z M517.4883,411.3694 L520.4727,411.3694 L523.832,423.76 L521.3789,423.76 L520.6133,420.6975 L517.332,420.6975 L516.582,423.76 L514.1445,423.76 L517.4883,411.3694 Z " fill="#000000"/><text fill="#000000" font-family="sans-serif" font-size="14" font-style="italic" lengthAdjust="spacing" textLength="48.2959" x="539.3633" y="423.1067">Signup</text><line style="stroke:#181818;stroke-width:0.5;" x1="462.25" x2="632.2725" y1="434.26" y2="434.26"/><ellipse cx="472.25" cy="447.9084" fill="none" rx="3" ry="3" style="stroke:#038048;stroke-width:1;"/><text fill="#000000" font-family="sans-serif" font-size="14" lengthAdjust="spacing" textLength="57.3467" x="481.25" y="451.2551">id: UUID</text><ellipse cx="472.25" cy="464.2053" fill="none" rx="3" ry="3" style="stroke:#038048;stroke-width:1;"/><text fill="#000000" font-family="sans-serif" font-size="14" lengthAdjust="spacing" textLength="146.0225" x="481.25" y="467.552">createdAt: DateTime</text><ellipse cx="472.25" cy="480.5022" fill="none" rx="3" ry="3" style="stroke:#038048;stroke-width:1;"/><text fill="#000000" font-family="sans-serif" font-size="14" lengthAdjust="spacing" textLength="145.0928" x="481.25" y="483.8489">status: SignupStatus</text><line style="stroke:#181818;stroke-width:0.5;" x1="462.25" x2="632.2725" y1="491.1506" y2="491.1506"/></g><!--class SignupStatus--><g class="entity" data-entity="SignupStatus" data-source-line="93" data-uid="ent0026" id="entity_SignupStatus"><rect fill="#F1F1F1" height="96.8906" rx="2.5" ry="2.5" style="stroke:#181818;stroke-width:0.5;" width="124.9072" x="667.8" y="402.26"/><ellipse cx="682.8" cy="418.26" fill="#EB937F" rx="11" ry="11" style="stroke:#181818;stroke-width:1;"/><path d="M686.9094,424.26 L679.1906,424.26 L679.1906,411.8694 L686.9094,411.8694 L686.9094,414.0256 L681.6438,414.0256 L681.6438,416.6975 L686.4094,416.6975 L686.4094,418.8538 L681.6438,418.8538 L681.6438,422.1038 L686.9094,422.1038 L686.9094,424.26 Z " fill="#000000"/><text fill="#000000" font-family="sans-serif" font-size="14" lengthAdjust="spacing" textLength="92.9072" x="696.8" y="423.1067">SignupStatus</text><line style="stroke:#181818;stroke-width:0.5;" x1="668.8" x2="791.7072" y1="434.26" y2="434.26"/><text fill="#000000" font-family="sans-serif" font-size="14" lengthAdjust="spacing" textLength="84.8818" x="673.8" y="451.2551">CONFIRMED</text><text fill="#000000" font-family="sans-serif" font-size="14" lengthAdjust="spacing" textLength="85.0938" x="673.8" y="467.552">WAITLISTED</text><text fill="#000000" font-family="sans-serif" font-size="14" lengthAdjust="spacing" textLength="83.6719" x="673.8" y="483.8489">CANCELLED</text><line style="stroke:#181818;stroke-width:0.5;" x1="668.8" x2="791.7072" y1="491.1506" y2="491.1506"/></g><!--class BusSignup--><g class="entity" data-entity="BusSignup" data-source-line="100" data-uid="ent0028" id="entity_BusSignup"><rect fill="#F1F1F1" height="48" rx="2.5" ry="2.5" style="stroke:#181818;stroke-width:0.5;" width="106.0674" x="348.22" y="575.45"/><ellipse cx="363.22" cy="591.45" fill="#ADD1B2" rx="11" ry="11" style="stroke:#181818;stroke-width:1;"/><path d="M366.1888,597.0906 Q365.6106,597.3875 364.97,597.5281 Q364.3294,597.6844 363.6263,597.6844 Q361.1263,597.6844 359.7981,596.0438 Q358.4856,594.3875 358.4856,591.2625 Q358.4856,588.1375 359.7981,586.4813 Q361.1263,584.825 363.6263,584.825 Q364.3294,584.825 364.97,584.9813 Q365.6263,585.1375 366.1888,585.4344 L366.1888,588.1531 Q365.5638,587.575 364.97,587.3094 Q364.3763,587.0281 363.7513,587.0281 Q362.4075,587.0281 361.72,588.1063 Q361.0325,589.1688 361.0325,591.2625 Q361.0325,593.3563 361.72,594.4344 Q362.4075,595.4969 363.7513,595.4969 Q364.3763,595.4969 364.97,595.2313 Q365.5638,594.95 366.1888,594.3719 L366.1888,597.0906 Z " fill="#000000"/><text fill="#000000" font-family="sans-serif" font-size="14" lengthAdjust="spacing" textLength="74.0674" x="377.22" y="596.2967">BusSignup</text><line style="stroke:#181818;stroke-width:0.5;" x1="349.22" x2="453.2874" y1="607.45" y2="607.45"/><line style="stroke:#181818;stroke-width:0.5;" x1="349.22" x2="453.2874" y1="615.45" y2="615.45"/></g><!--class RSVPSignup--><g class="entity" data-entity="RSVPSignup" data-source-line="101" data-uid="ent0030" id="entity_RSVPSignup"><rect fill="#F1F1F1" height="48" rx="2.5" ry="2.5" style="stroke:#181818;stroke-width:0.5;" width="116.9297" x="488.79" y="575.45"/><ellipse cx="503.79" cy="591.45" fill="#ADD1B2" rx="11" ry="11" style="stroke:#181818;stroke-width:1;"/><path d="M506.7588,597.0906 Q506.1806,597.3875 505.54,597.5281 Q504.8994,597.6844 504.1963,597.6844 Q501.6963,597.6844 500.3681,596.0438 Q499.0556,594.3875 499.0556,591.2625 Q499.0556,588.1375 500.3681,586.4813 Q501.6963,584.825 504.1963,584.825 Q504.8994,584.825 505.54,584.9813 Q506.1963,585.1375 506.7588,585.4344 L506.7588,588.1531 Q506.1338,587.575 505.54,587.3094 Q504.9463,587.0281 504.3213,587.0281 Q502.9775,587.0281 502.29,588.1063 Q501.6025,589.1688 501.6025,591.2625 Q501.6025,593.3563 502.29,594.4344 Q502.9775,595.4969 504.3213,595.4969 Q504.9463,595.4969 505.54,595.2313 Q506.1338,594.95 506.7588,594.3719 L506.7588,597.0906 Z " fill="#000000"/><text fill="#000000" font-family="sans-serif" font-size="14" lengthAdjust="spacing" textLength="84.9297" x="517.79" y="596.2967">RSVPSignup</text><line style="stroke:#181818;stroke-width:0.5;" x1="489.79" x2="604.7197" y1="607.45" y2="607.45"/><line style="stroke:#181818;stroke-width:0.5;" x1="489.79" x2="604.7197" y1="615.45" y2="615.45"/></g><!--class TableSignup--><g class="entity" data-entity="TableSignup" data-source-line="102" data-uid="ent0032" id="entity_TableSignup"><rect fill="#F1F1F1" height="48" rx="2.5" ry="2.5" style="stroke:#181818;stroke-width:0.5;" width="118.8164" x="640.85" y="575.45"/><ellipse cx="655.85" cy="591.45" fill="#ADD1B2" rx="11" ry="11" style="stroke:#181818;stroke-width:1;"/><path d="M658.8188,597.0906 Q658.2406,597.3875 657.6,597.5281 Q656.9594,597.6844 656.2563,597.6844 Q653.7563,597.6844 652.4281,596.0438 Q651.1156,594.3875 651.1156,591.2625 Q651.1156,588.1375 652.4281,586.4813 Q653.7563,584.825 656.2563,584.825 Q656.9594,584.825 657.6,584.9813 Q658.2563,585.1375 658.8188,585.4344 L658.8188,588.1531 Q658.1938,587.575 657.6,587.3094 Q657.0063,587.0281 656.3813,587.0281 Q655.0375,587.0281 654.35,588.1063 Q653.6625,589.1688 653.6625,591.2625 Q653.6625,593.3563 654.35,594.4344 Q655.0375,595.4969 656.3813,595.4969 Q657.0063,595.4969 657.6,595.2313 Q658.1938,594.95 658.8188,594.3719 L658.8188,597.0906 Z " fill="#000000"/><text fill="#000000" font-family="sans-serif" font-size="14" lengthAdjust="spacing" textLength="86.8164" x="669.85" y="596.2967">TableSignup</text><line style="stroke:#181818;stroke-width:0.5;" x1="641.85" x2="758.6664" y1="607.45" y2="607.45"/><line style="stroke:#181818;stroke-width:0.5;" x1="641.85" x2="758.6664" y1="615.45" y2="615.45"/></g><!--link Credentials to User--><g class="link" data-entity-1="Credentials" data-entity-2="User" data-source-line="11" data-uid="lnk4" id="link_Credentials_User"><path codeLine="11" d="M478.26,126.65 C478.26,155.89 478.26,177.75 478.26,208.7" fill="none" id="Credentials-User" style="stroke:#181818;stroke-width:1;"/><polygon fill="#181818" points="478.26,120.65,474.26,129.65,478.26,125.65,482.26,129.65,478.26,120.65" style="stroke:#181818;stroke-width:1;"/><polygon fill="#181818" points="478.26,220.7,482.26,214.7,478.26,208.7,474.26,214.7,478.26,220.7" style="stroke:#181818;stroke-width:1;"/></g><!--link PERMISSION_KEY to Permission--><g class="link" data-entity-1="PERMISSION_KEY" data-entity-2="Permission" data-source-line="24" data-uid="lnk7" id="link_PERMISSION_KEY_Permission"><path codeLine="24" d="M217.67,450.71 C229.03,450.71 222.38,450.71 233.74,450.71" fill="none" id="PERMISSION_KEY-Permission" style="stroke:#181818;stroke-width:1;"/><polygon fill="#181818" points="211.67,450.71,220.67,454.71,216.67,450.71,220.67,446.71,211.67,450.71" style="stroke:#181818;stroke-width:1;"/><polygon fill="#181818" points="245.74,450.71,239.74,446.71,233.74,450.71,239.74,454.71,245.74,450.71" style="stroke:#181818;stroke-width:1;"/></g><!--reverse link User to Permission--><g class="link" data-entity-1="User" data-entity-2="Permission" data-source-line="25" data-uid="lnk8" id="link_User_Permission"><path codeLine="25" d="M436.8545,322.6632 C411.7045,354.4132 383.08,390.57 361.12,418.31" fill="none" id="User-backto-Permission" style="stroke:#181818;stroke-width:1;"/><polygon fill="#181818" points="440.58,317.96,431.8562,322.5311,437.4754,321.8794,438.1272,327.4985,440.58,317.96" style="stroke:#181818;stroke-width:1;"/><text fill="#000000" font-family="sans-serif" font-size="13" lengthAdjust="spacing" textLength="8.271" x="426.7388" y="337.9231">1</text><text fill="#000000" font-family="sans-serif" font-size="13" lengthAdjust="spacing" textLength="6.5" x="359.474" y="407.535">*</text></g><!--link Registration to RegistrationStatus--><g class="link" data-entity-1="Registration" data-entity-2="RegistrationStatus" data-source-line="47" data-uid="lnk12" id="link_Registration_RegistrationStatus"><path codeLine="47" d="M888.67,269.37 C900.11,269.37 893.55,269.37 904.99,269.37" fill="none" id="Registration-RegistrationStatus" style="stroke:#181818;stroke-width:1;"/><polygon fill="#181818" points="876.67,269.37,882.67,273.37,888.67,269.37,882.67,265.37,876.67,269.37" style="stroke:#181818;stroke-width:1;"/><polygon fill="#181818" points="910.99,269.37,901.99,265.37,905.99,269.37,901.99,273.37,910.99,269.37" style="stroke:#181818;stroke-width:1;"/></g><!--link User to Registration--><g class="link" data-entity-1="User" data-entity-2="Registration" data-source-line="49" data-uid="lnk13" id="link_User_Registration"><path codeLine="49" d="M562.95,269.37 C597.97,269.37 626.99,269.37 662.01,269.37" fill="none" id="User-to-Registration" style="stroke:#181818;stroke-width:1;"/><polygon fill="#181818" points="668.01,269.37,659.01,265.37,663.01,269.37,659.01,273.37,668.01,269.37" style="stroke:#181818;stroke-width:1;"/><text fill="#000000" font-family="sans-serif" font-size="13" lengthAdjust="spacing" textLength="8.271" x="570.5841" y="265.7976">1</text><text fill="#000000" font-family="sans-serif" font-size="13" lengthAdjust="spacing" textLength="6.5" x="653.8182" y="265.8674">*</text></g><!--reverse link Event to Registration--><g class="link" data-entity-1="Event" data-entity-2="Registration" data-source-line="50" data-uid="lnk14" id="link_Event_Registration"><path codeLine="50" d="M756.5144,159.0489 C759.7644,181.6389 762.42,200.05 765.37,220.53" fill="none" id="Event-backto-Registration" style="stroke:#181818;stroke-width:1;"/><polygon fill="#181818" points="755.66,153.11,752.9824,162.5879,756.372,158.059,760.9009,161.4487,755.66,153.11" style="stroke:#181818;stroke-width:1;"/><text fill="#000000" font-family="sans-serif" font-size="13" lengthAdjust="spacing" textLength="8.271" x="748.2831" y="172.8768">1</text><text fill="#000000" font-family="sans-serif" font-size="13" lengthAdjust="spacing" textLength="6.5" x="758.0753" y="210.0344">*</text></g><!--link PaymentGateway to PaymentProvider--><g class="link" data-entity-1="PaymentGateway" data-entity-2="PaymentProvider" data-source-line="67" data-uid="lnk18" id="link_PaymentGateway_PaymentProvider"><path codeLine="67" d="M1217.4,450.71 C1228.87,450.71 1222.33,450.71 1233.8,450.71" fill="none" id="PaymentGateway-PaymentProvider" style="stroke:#181818;stroke-width:1;"/><polygon fill="#181818" points="1205.4,450.71,1211.4,454.71,1217.4,450.71,1211.4,446.71,1205.4,450.71" style="stroke:#181818;stroke-width:1;"/><polygon fill="#181818" points="1239.8,450.71,1230.8,446.71,1234.8,450.71,1230.8,454.71,1239.8,450.71" style="stroke:#181818;stroke-width:1;"/></g><!--link PaymentType to PaymentGateway--><g class="link" data-entity-1="PaymentType" data-entity-2="PaymentGateway" data-source-line="68" data-uid="lnk19" id="link_PaymentType_PaymentGateway"><path codeLine="68" d="M962.63,450.71 C974.07,450.71 967.5,450.71 978.93,450.71" fill="none" id="PaymentType-PaymentGateway" style="stroke:#181818;stroke-width:1;"/><polygon fill="#181818" points="956.63,450.71,965.63,454.71,961.63,450.71,965.63,446.71,956.63,450.71" style="stroke:#181818;stroke-width:1;"/><polygon fill="#181818" points="990.93,450.71,984.93,446.71,978.93,450.71,984.93,454.71,990.93,450.71" style="stroke:#181818;stroke-width:1;"/></g><!--link Registration to PaymentGateway--><g class="link" data-entity-1="Registration" data-entity-2="PaymentGateway" data-source-line="70" data-uid="lnk20" id="link_Registration_PaymentGateway"><path codeLine="70" d="M859.19,318.2 C901.44,341.44 947.2228,366.6283 991.2728,390.8583" fill="none" id="Registration-to-PaymentGateway" style="stroke:#181818;stroke-width:1;"/><polygon fill="#181818" points="996.53,393.75,990.5721,385.9076,992.149,391.3402,986.7164,392.9172,996.53,393.75" style="stroke:#181818;stroke-width:1;"/><text fill="#000000" font-family="sans-serif" font-size="13" lengthAdjust="spacing" textLength="8.271" x="862.3526" y="337.8444">1</text><text fill="#000000" font-family="sans-serif" font-size="13" lengthAdjust="spacing" textLength="8.271" x="975.6607" y="382.9697">1</text></g><!--link Ticket to TicketStatus--><g class="link" data-entity-1="Ticket" data-entity-2="TicketStatus" data-source-line="84" data-uid="lnk23" id="link_Ticket_TicketStatus"><path codeLine="84" d="M1285.23,269.37 C1296.61,269.37 1290,269.37 1301.39,269.37" fill="none" id="Ticket-TicketStatus" style="stroke:#181818;stroke-width:1;"/><polygon fill="#181818" points="1273.23,269.37,1279.23,273.37,1285.23,269.37,1279.23,265.37,1273.23,269.37" style="stroke:#181818;stroke-width:1;"/><polygon fill="#181818" points="1307.39,269.37,1298.39,265.37,1302.39,269.37,1298.39,273.37,1307.39,269.37" style="stroke:#181818;stroke-width:1;"/></g><!--link Registration to Ticket--><g class="link" data-entity-1="Registration" data-entity-2="Ticket" data-source-line="86" data-uid="lnk24" id="link_Registration_Ticket"><path codeLine="86" d="M834.34,220.57 C857.33,205.37 884.48,190.56 911.76,182.78 C980.57,163.16 1004.78,160.44 1072.76,182.78 C1096.59,190.61 1114.844,201.6306 1134.054,216.7406" fill="none" id="Registration-to-Ticket" style="stroke:#181818;stroke-width:1;"/><polygon fill="#181818" points="1138.77,220.45,1134.169,211.7419,1134.84,217.3588,1129.2231,218.0298,1138.77,220.45" style="stroke:#181818;stroke-width:1;"/><text fill="#000000" font-family="sans-serif" font-size="13" lengthAdjust="spacing" textLength="8.271" x="834.5273" y="209.7283">1</text><text fill="#000000" font-family="sans-serif" font-size="13" lengthAdjust="spacing" textLength="6.5" x="1125.4825" y="209.9437">*</text></g><!--link Signup to SignupStatus--><g class="link" data-entity-1="Signup" data-entity-2="SignupStatus" data-source-line="98" data-uid="lnk27" id="link_Signup_SignupStatus"><path codeLine="98" d="M645.75,450.71 C657.06,450.71 650.37,450.71 661.68,450.71" fill="none" id="Signup-SignupStatus" style="stroke:#181818;stroke-width:1;"/><polygon fill="#181818" points="633.75,450.71,639.75,454.71,645.75,450.71,639.75,446.71,633.75,450.71" style="stroke:#181818;stroke-width:1;"/><polygon fill="#181818" points="667.68,450.71,658.68,446.71,662.68,450.71,658.68,454.71,667.68,450.71" style="stroke:#181818;stroke-width:1;"/></g><!--reverse link Signup to BusSignup--><g class="link" data-entity-1="Signup" data-entity-2="BusSignup" data-source-line="100" data-uid="lnk29" id="link_Signup_BusSignup"><path d="M487.1547,512.1105 C461.8447,537.5505 444.53,554.96 424.32,575.27" fill="none" id="Signup-backto-BusSignup" style="stroke:#181818;stroke-width:1;"/><polygon fill="none" points="499.85,499.35,482.9012,507.8787,491.4082,516.3422,499.85,499.35" style="stroke:#181818;stroke-width:1;"/></g><!--reverse link Signup to RSVPSignup--><g class="link" data-entity-1="Signup" data-entity-2="RSVPSignup" data-source-line="101" data-uid="lnk31" id="link_Signup_RSVPSignup"><path d="M547.26,517.35 C547.26,542.79 547.26,554.96 547.26,575.27" fill="none" id="Signup-backto-RSVPSignup" style="stroke:#181818;stroke-width:1;"/><polygon fill="none" points="547.26,499.35,541.26,517.35,553.26,517.35,547.26,499.35" style="stroke:#181818;stroke-width:1;"/></g><!--reverse link Signup to TableSignup--><g class="link" data-entity-1="Signup" data-entity-2="TableSignup" data-source-line="102" data-uid="lnk33" id="link_Signup_TableSignup"><path d="M609.922,511.8082 C636.452,537.2482 654.91,554.96 676.09,575.27" fill="none" id="Signup-backto-TableSignup" style="stroke:#181818;stroke-width:1;"/><polygon fill="none" points="596.93,499.35,605.7693,516.1389,614.0748,507.4776,596.93,499.35" style="stroke:#181818;stroke-width:1;"/></g><!--link User to Signup--><g class="link" data-entity-1="User" data-entity-2="Signup" data-source-line="104" data-uid="lnk34" id="link_User_Signup"><path codeLine="104" d="M496.57,317.96 C506.55,343.9 516.7166,370.3198 526.7066,396.2998" fill="none" id="User-to-Signup" style="stroke:#181818;stroke-width:1;"/><polygon fill="#181818" points="528.86,401.9,529.3633,392.064,527.0655,397.2331,521.8963,394.9353,528.86,401.9" style="stroke:#181818;stroke-width:1;"/><text fill="#000000" font-family="sans-serif" font-size="13" lengthAdjust="spacing" textLength="8.271" x="490.6024" y="337.9231">1</text><text fill="#000000" font-family="sans-serif" font-size="13" lengthAdjust="spacing" textLength="6.5" x="519.8856" y="391.0583">*</text></g><!--reverse link Event to Signup--><g class="link" data-entity-1="Event" data-entity-2="Signup" data-source-line="105" data-uid="lnk35" id="link_Event_Signup"><path codeLine="105" d="M686.3217,157.956 C672.9117,176.886 662.64,192.73 651.26,212.78 C615.55,275.67 583.62,353.17 564.84,402.02" fill="none" id="Event-backto-Signup" style="stroke:#181818;stroke-width:1;"/><polygon fill="#181818" points="689.79,153.06,681.3235,158.0918,686.8997,157.14,687.8515,162.7162,689.79,153.06" style="stroke:#181818;stroke-width:1;"/><text fill="#000000" font-family="sans-serif" font-size="13" lengthAdjust="spacing" textLength="8.271" x="676.1349" y="172.822">1</text><text fill="#000000" font-family="sans-serif" font-size="13" lengthAdjust="spacing" textLength="6.5" x="560.9253" y="391.1952">*</text></g><!--SRC=[VLHDR-8m4BtdLrWSMN7OQuGgkS5bhGOJnO6M4t8J2rab8OfDMxJgVr_RSO93w1vGD5zlvhqPan-Pb60ZUGF-1W3y0g88mMQ35zRW9HF7423pWKNHS2cjln2oFh8BOIKF0LMDg0x1Tn3a5YngUC4h9TXHEipZwI2gFX606PZFUPKtbrhnuk41rBhiyzGK7fOFCf_DfdR4e6kHyAOKKefJvJgyyqi84fIkCALuJVRFQAT1U7KkRxmsFu6x5I8PtMynUl7j5IHmYRI7uYNP97r2P_Pn64M8qcXDidGTT-xluARNNCzz7JMmAaz-JmmXC9bE_5Z737rerlTMKVbQ6uTKh55GXM315Cz4oTkDLSN8bxEQvK9fXN2b-47hQ3DD9_J5yz1gQnlrEqpvGKZLC7MLU32DFB-LGkdjZPhfiTHPXWC4QdtTGiQHTYc8B31P6d6J95rlaUaKGHAXE4PcjC5Cqzd3lHPNZNNSI3me2bfr_HKCuxgZEp1sANNgKZFxP1Sxtuq6ncJbwLofI2TANriJgflJXoXu4tPGYNEukBhKl8zbsj3-R_rhJtPOujgZrmob1CRx9SpG2znP9oREINSqGwixA0RS8KGfMk1i7y6qPR10Zxw9zbaA2Nr2gOEvKS5eFcRZjx47FoWAXckpcp6hqTyRzE2gVYRoTwv-KZq_5VvBy8-kBNItu4dX-nqit48SmySOMOkkunR-Ud3M-eEYPxJOO-BGt6H6YK6lEopR-tC5XXjxCmcvSYIfE5Jd-aUI3MVZv-LpRUl7N7r_j_SrUSBfof5wWJYBiRwMCMC3ukOo50Sj-kqydgNBuLzA_zzqLFg4b6wJ_sTaxEt8xwTuBzX9wF86ZzSB_0C0]--></g></svg>